<?xml version="1.0" standalone="no"?>
<!DOCTYPE svg PUBLIC "-//W3C//DTD SVG 20010904//EN"
 "http://www.w3.org/TR/2001/REC-SVG-20010904/DTD/svg10.dtd">
<svg version="1.0" xmlns="http://www.w3.org/2000/svg"
 width="1314.000000pt" height="1847.000000pt" viewBox="0 0 1314.000000 1847.000000"
 preserveAspectRatio="xMidYMid meet">

<g transform="translate(0.000000,1847.000000) scale(0.100000,-0.100000)"
fill="#d54243" stroke="none">
<path d="M7 13988 c2 -2466 6 -5707 9 -7204 l6 -2720 3300 -2027 c1815 -1115
3303 -2028 3307 -2030 5 -1 6498 4077 6507 4087 0 1 -5 2715 -12 6031 -7 3317
-13 6551 -13 7188 l-1 1157 -6553 0 -6552 0 2 -4482z m12983 4205 c0 -87 7
-3279 15 -7093 8 -3814 11 -6937 6 -6940 -4 -3 -1440 -907 -3192 -2009 l-3184
-2004 -45 25 c-25 14 -1485 911 -3245 1992 l-3200 1966 -6 38 c-4 20 -9 3220
-12 7110 l-6 7072 6435 0 6434 0 0 -157z"/>
<path d="M376 17269 c-4 -470 -8 -1134 -9 -1477 l-2 -622 6198 0 6197 0 0
1470 0 1470 -3467 0 c-1908 0 -4693 3 -6189 7 l-2722 6 -6 -854z m10477 721
l1787 0 0 -1350 0 -1350 -6078 0 -6079 0 4 1123 c2 617 6 1227 9 1356 l6 234
4282 -6 c2354 -4 5085 -7 6069 -7z"/>
<path d="M9150 17829 c-63 -4 -143 -13 -177 -20 -122 -22 -205 -105 -219 -218
-4 -31 -2 -447 4 -925 l11 -870 24 -45 c44 -87 124 -129 290 -152 109 -15 624
-15 757 0 411 47 642 179 780 443 95 182 108 415 31 566 -23 44 -86 114 -135
148 l-28 20 50 75 c92 135 133 326 103 481 -45 226 -272 406 -596 472 -166 34
-600 46 -895 25z m728 -549 c42 -9 55 -17 63 -37 12 -33 10 -227 -5 -288 -11
-49 -12 -50 -56 -57 -108 -16 -421 -1 -443 21 -5 5 -11 88 -14 185 l-6 176 24
10 c31 13 366 6 437 -10z m2 -792 c76 -18 95 -55 95 -183 0 -110 -23 -181 -64
-197 -71 -27 -483 -17 -501 13 -10 16 -18 225 -11 304 l6 70 55 7 c81 9 357 0
420 -14z"/>
<path d="M4546 17819 c-482 -47 -812 -313 -922 -745 -65 -258 -55 -638 23
-889 111 -355 360 -556 748 -604 256 -31 493 2 680 95 63 32 91 41 94 32 2 -7
27 -36 55 -64 61 -62 110 -79 208 -71 75 6 116 24 147 63 20 25 21 39 22 263
0 130 4 344 8 476 4 132 4 257 0 279 -9 49 -36 85 -85 113 -38 22 -45 23 -387
23 -373 0 -376 0 -424 -52 -59 -63 -72 -201 -29 -295 36 -76 83 -104 188 -112
l82 -6 -41 -33 c-82 -64 -225 -112 -338 -112 -66 0 -173 24 -223 49 -21 11
-60 43 -85 71 -82 91 -112 215 -105 424 4 107 10 145 32 209 68 201 202 303
429 326 210 21 383 -54 457 -199 17 -33 33 -47 77 -67 51 -23 64 -25 157 -21
170 9 268 65 296 169 14 52 7 94 -30 175 -81 180 -226 328 -405 414 -178 86
-372 113 -629 89z"/>
<path d="M2245 17770 c-376 -6 -366 -4 -419 -73 -50 -65 -69 -125 -70 -217 0
-67 5 -96 23 -135 22 -50 69 -107 106 -128 13 -8 98 -14 235 -17 l215 -5 0
-751 0 -750 28 -37 c47 -62 115 -90 228 -95 112 -5 189 13 239 54 65 55 62 20
66 758 3 369 7 708 10 754 l6 82 112 0 c62 0 168 3 235 7 l122 6 43 38 c65 58
90 122 90 239 1 86 -2 100 -29 155 -17 33 -47 72 -68 90 l-39 30 -396 0 c-219
1 -550 -2 -737 -5z"/>
<path d="M6340 17270 c-94 -12 -185 -37 -249 -70 -128 -64 -273 -200 -319
-297 -25 -53 -27 -68 -27 -183 0 -120 1 -128 32 -193 61 -128 185 -219 343
-251 41 -8 135 -20 209 -26 210 -17 299 -43 323 -95 14 -31 -15 -84 -58 -105
-69 -34 -293 -1 -339 50 -27 30 -150 105 -215 131 -39 15 -78 22 -131 23 -68
1 -79 -2 -112 -27 -20 -15 -49 -44 -64 -64 -25 -33 -28 -44 -28 -118 0 -74 3
-88 39 -161 78 -158 257 -293 456 -343 155 -39 459 -35 583 7 118 39 276 159
339 256 54 85 80 172 81 281 2 184 -56 313 -186 411 -141 106 -300 158 -529
173 -146 10 -210 30 -223 71 -15 48 43 70 187 70 116 0 216 -28 319 -88 85
-50 120 -62 183 -62 72 0 123 32 164 100 63 105 65 181 10 265 -60 90 -217
185 -373 225 -91 24 -306 34 -415 20z"/>
<path d="M7588 16190 c-61 -11 -144 -56 -174 -95 -53 -70 -69 -123 -69 -235 0
-89 4 -113 24 -157 26 -59 82 -115 138 -139 52 -22 165 -22 233 1 39 13 69 33
106 70 64 64 84 121 84 245 0 151 -41 240 -132 283 -60 29 -141 39 -210 27z"/>
<path d="M11151 16190 c-158 -33 -245 -150 -245 -330 -1 -180 74 -281 226
-310 58 -11 152 1 201 26 45 24 107 84 127 125 32 61 45 167 31 250 -12 74
-46 152 -78 181 -53 48 -177 75 -262 58z"/>
<path d="M380 10866 l0 -4043 3110 5 3110 5 0 -3182 c0 -1789 4 -3181 9 -3179
4 1 1391 865 3081 1918 l3073 1914 -4 5288 -4 5288 -210 0 c-115 0 -2588 7
-5495 15 -2907 8 -5597 15 -5977 15 l-693 0 0 -4044z m11348 3558 c121 -50
123 -141 6 -258 -170 -170 -545 -409 -826 -525 -53 -22 -187 -81 -297 -131
-110 -49 -226 -97 -258 -105 -32 -9 -151 -22 -264 -30 -208 -15 -264 -25 -257
-47 7 -19 54 -28 223 -39 234 -15 708 7 871 41 28 6 93 35 145 64 107 62 140
72 261 80 182 13 358 67 596 182 100 49 163 74 180 72 38 -4 82 -95 89 -181
20 -243 -217 -463 -662 -617 -66 -23 -331 -95 -590 -161 -695 -177 -829 -220
-856 -271 -14 -27 5 -72 37 -87 35 -16 143 -14 249 5 51 9 200 19 345 24 272
9 294 12 693 89 139 27 304 57 367 66 63 8 171 25 240 36 136 22 163 19 207
-23 64 -60 23 -158 -133 -313 -58 -58 -137 -128 -177 -156 -164 -116 -436
-226 -662 -268 -216 -40 -727 -91 -930 -93 -121 -1 -150 2 -210 21 -97 32
-194 83 -250 131 -51 44 -65 49 -65 23 0 -68 131 -151 327 -208 67 -20 127
-28 253 -36 91 -5 176 -11 190 -14 14 -3 108 -9 210 -15 213 -10 273 -24 331
-77 54 -49 69 -81 69 -148 l0 -55 -2290 0 -2290 0 0 -2175 c0 -1196 -4 -2175
-8 -2175 -5 0 -46 30 -92 67 -115 93 -169 167 -219 300 -54 141 -80 195 -90
191 -4 -2 -28 -28 -53 -58 -84 -104 -107 -68 -107 170 -1 88 8 238 19 345 24
229 25 326 4 436 -18 97 -37 134 -76 150 -62 26 -147 -18 -251 -131 -82 -88
-122 -166 -154 -292 -13 -56 -31 -114 -38 -128 -21 -40 -64 -74 -153 -121
-166 -87 -309 -228 -372 -364 -37 -80 -41 -85 -70 -85 -44 0 -87 28 -106 69
-14 29 -16 54 -10 155 4 66 12 131 19 145 8 18 42 41 107 73 128 65 141 79
149 165 8 91 32 123 129 172 67 34 114 88 244 284 120 181 188 304 188 341 0
10 -27 62 -60 115 -72 118 -99 177 -141 312 -17 57 -62 176 -100 264 -87 206
-99 256 -109 450 -4 88 -11 168 -15 178 -9 22 -47 22 -68 0 -25 -28 -53 -102
-113 -296 -149 -485 -314 -763 -635 -1072 -372 -358 -780 -557 -1114 -543
-112 5 -163 23 -209 78 -50 61 -35 78 132 153 138 62 210 111 382 257 192 163
233 203 354 345 191 224 235 311 300 600 20 89 20 95 -3 95 -41 0 -272 -176
-526 -399 -232 -205 -499 -365 -750 -450 -213 -72 -402 -101 -651 -101 -250 0
-413 37 -474 107 -17 18 -30 41 -30 49 0 30 55 66 175 115 245 100 522 254
822 455 202 136 270 191 377 306 113 121 204 249 266 373 52 106 67 160 50
185 -8 13 -24 10 -117 -24 -520 -186 -818 -268 -1253 -342 -362 -63 -682 -15
-1029 153 -214 104 -381 236 -381 301 0 36 23 58 87 82 109 41 208 52 678 75
717 35 900 69 1286 235 225 96 297 149 341 247 39 87 -1 123 -134 123 -191 0
-913 47 -1163 76 -438 50 -697 125 -838 242 -119 98 -257 345 -257 459 0 27 5
54 12 61 22 22 87 12 241 -37 83 -27 182 -56 219 -65 108 -25 332 -55 507 -67
212 -15 675 -6 831 16 210 29 369 75 443 127 l30 21 -21 18 c-21 17 -64 26
-335 69 -348 57 -701 175 -1049 351 -288 147 -513 352 -619 564 -51 102 -60
169 -29 208 17 22 29 27 65 27 58 0 162 -33 265 -85 102 -51 229 -92 412 -134
170 -39 559 -105 738 -125 149 -18 350 -21 334 -7 -5 5 -82 23 -172 41 -349
66 -575 170 -872 401 -127 98 -279 246 -353 344 -93 124 -167 296 -167 390 0
17 10 51 23 75 31 61 80 85 172 84 116 0 198 -34 396 -164 279 -184 566 -287
932 -335 165 -21 268 -19 447 11 225 37 450 43 588 15 188 -39 325 -101 392
-177 56 -65 64 -95 64 -244 -1 -209 -49 -396 -122 -474 -15 -15 -68 -48 -119
-71 -237 -111 -345 -240 -408 -490 -45 -175 -32 -337 38 -469 35 -67 152 -192
207 -222 49 -27 184 -23 435 11 220 30 395 36 490 16 33 -7 144 -37 247 -66
506 -145 668 -149 671 -18 0 21 -3 92 -8 159 -13 201 14 273 172 451 181 204
197 248 191 527 -3 169 -6 196 -25 239 -12 26 -29 50 -38 54 -10 3 -58 -4
-109 -15 -107 -25 -146 -19 -190 27 -21 22 -30 44 -38 97 -15 101 -25 136 -50
166 l-23 27 -116 -28 c-176 -44 -262 -55 -296 -39 -43 20 -41 54 9 129 57 85
108 114 324 184 199 64 189 56 233 205 53 175 140 275 314 359 139 68 241 93
402 98 128 5 160 2 398 -41 72 -13 86 -12 170 5 108 23 133 19 174 -24 41 -42
47 -68 28 -112 -21 -51 -19 -60 16 -111 44 -64 94 -177 114 -259 53 -210 24
-524 -65 -709 -16 -36 -78 -136 -137 -222 -58 -87 -120 -187 -137 -223 l-31
-66 1 -215 c1 -291 29 -523 75 -612 20 -40 96 -105 163 -141 32 -17 58 -22
121 -22 87 0 90 1 256 97 176 100 449 208 617 243 143 30 238 17 517 -69 169
-52 242 -66 354 -66 168 0 263 45 337 160 23 36 60 87 81 114 84 107 86 113
91 290 8 276 -26 347 -214 452 -132 74 -246 110 -394 124 -85 8 -106 14 -195
59 -154 77 -316 217 -371 321 -15 29 -18 60 -19 185 0 208 21 263 126 319 30
16 104 62 164 101 254 167 412 219 545 180 228 -65 239 -67 400 -67 311 1 975
78 1348 157 163 34 264 64 446 132 236 88 262 93 324 67z m910 -6601 l-3
-3456 -2950 -1838 c-1622 -1011 -2953 -1839 -2957 -1839 -5 0 -8 2383 -8 5295
l0 5295 2960 0 2960 0 -2 -3457z"/>
<path d="M6223 14106 c-64 -20 -99 -51 -130 -113 -71 -146 -5 -337 129 -374
170 -46 368 97 368 266 0 164 -187 277 -367 221z"/>
<path d="M9915 13813 c-16 -9 -55 -21 -85 -28 l-55 -12 -8 -55 c-8 -47 -6 -61
11 -95 17 -33 31 -44 76 -61 71 -27 168 -47 190 -39 22 9 31 34 50 145 21 119
15 132 -71 150 -74 15 -72 15 -108 -5z"/>
<path d="M2574 13689 c-30 -15 -54 -62 -61 -118 -9 -76 8 -105 80 -141 68 -34
127 -39 182 -16 32 14 35 19 35 55 0 32 6 44 31 66 49 41 33 61 -97 118 -112
48 -134 53 -170 36z"/>
<path d="M9546 13664 c-82 -20 -118 -24 -225 -22 -121 3 -128 2 -178 -24 -29
-16 -56 -36 -61 -45 -5 -10 -12 -48 -15 -85 -5 -73 -26 -118 -55 -118 -29 0
-62 -29 -62 -55 0 -15 18 -45 45 -75 24 -28 51 -63 60 -80 17 -34 63 -50 140
-50 80 0 177 18 194 34 14 14 11 23 -23 90 -46 90 -44 113 17 155 81 56 252
88 299 57 25 -16 27 -16 72 15 38 28 46 38 46 65 0 20 -10 44 -25 62 -14 17
-25 39 -25 50 0 27 -37 52 -75 51 -16 0 -74 -11 -129 -25z"/>
<path d="M3096 13655 c-11 -8 -27 -15 -36 -15 -10 0 -38 -16 -63 -35 -25 -19
-63 -41 -83 -48 -28 -9 -40 -20 -47 -42 -5 -16 -18 -41 -28 -56 -19 -27 -15
-40 18 -58 39 -20 87 -12 166 28 43 22 95 42 116 46 42 7 81 36 81 61 0 8 6
27 14 43 17 32 13 41 -34 70 -41 24 -77 26 -104 6z"/>
<path d="M3301 13638 c-39 -27 -77 -114 -67 -154 10 -37 97 -74 189 -81 67 -5
74 -4 95 19 26 29 37 81 28 132 -6 29 -16 40 -61 66 -75 43 -139 49 -184 18z"/>
<path d="M10305 13058 c-33 -11 -84 -29 -114 -40 -51 -20 -60 -20 -183 -9 -71
7 -131 11 -132 9 -1 -1 -11 -33 -20 -70 l-18 -68 28 -45 c26 -40 36 -47 104
-70 97 -32 155 -32 216 0 58 31 124 33 212 5 35 -11 73 -20 83 -20 11 0 50 29
86 65 l66 65 -2 61 c-2 76 -11 94 -61 119 -52 26 -179 25 -265 -2z"/>
<path d="M2172 12830 c-73 -33 -117 -98 -76 -114 12 -5 15 -14 10 -39 -9 -47
19 -69 134 -107 73 -25 106 -31 147 -28 73 6 85 20 48 58 -23 24 -29 41 -32
87 -6 75 -17 97 -72 133 -53 35 -97 38 -159 10z"/>
<path d="M2421 12766 c-10 -11 -6 -26 19 -72 16 -32 33 -74 36 -95 6 -34 11
-40 48 -54 22 -8 61 -16 86 -17 l45 -3 0 42 c0 58 27 84 94 91 58 5 67 13 50
40 -23 37 -64 53 -136 51 -37 0 -97 6 -133 15 -80 19 -94 20 -109 2z"/>
<path d="M2935 12728 c-11 -6 -39 -29 -63 -50 -24 -22 -49 -37 -57 -34 -22 8
-91 -31 -115 -64 -51 -71 7 -106 160 -98 103 6 153 28 204 91 33 40 66 103 66
126 0 5 -7 17 -16 25 -19 19 -147 22 -179 4z"/>
<path d="M1903 12680 c-52 -24 -63 -33 -63 -53 0 -54 64 -60 165 -16 73 31 86
45 73 75 -10 21 -18 24 -62 23 -34 0 -72 -10 -113 -29z"/>
<path d="M6555 12217 c-66 -30 -77 -32 -184 -32 l-114 0 0 -126 c0 -70 4 -132
7 -138 9 -14 120 -14 166 0 19 6 69 16 110 23 74 12 75 13 75 42 0 34 9 34 71
2 54 -28 70 -20 78 38 12 89 7 121 -25 174 -29 47 -33 50 -72 50 -26 0 -70
-13 -112 -33z"/>
<path d="M10380 12204 c-8 -3 -28 -25 -44 -50 -24 -39 -27 -51 -21 -87 4 -23
10 -62 13 -87 l7 -45 103 -9 c94 -7 110 -6 174 14 38 12 78 30 87 39 10 10 23
45 31 80 16 75 7 101 -45 125 -38 18 -60 18 -157 -6 -44 -11 -51 -10 -78 10
-29 22 -39 24 -70 16z"/>
<path d="M5982 12155 c-20 -25 -37 -121 -26 -149 7 -17 55 -36 95 -36 61 0 74
81 28 173 -16 30 -25 37 -48 37 -19 0 -36 -9 -49 -25z"/>
<path d="M5889 11903 c-10 -11 -15 -48 -16 -113 -1 -120 -11 -141 -108 -236
-67 -66 -73 -75 -79 -124 -9 -69 -25 -97 -80 -143 -65 -54 -79 -85 -67 -149
11 -61 7 -73 -34 -113 -17 -16 -39 -41 -49 -55 -17 -25 -17 -25 -32 -5 -57 78
-93 95 -161 77 -81 -22 -116 -45 -148 -96 -29 -48 -30 -53 -33 -191 -3 -119
-1 -143 12 -154 9 -8 16 -20 16 -27 0 -8 4 -14 8 -14 18 0 123 40 144 54 25
18 70 21 97 6 10 -5 26 -29 35 -54 17 -45 17 -46 -5 -85 -30 -54 -24 -135 14
-181 22 -26 27 -42 27 -86 0 -32 7 -69 17 -87 28 -55 33 -96 16 -145 -8 -24
-12 -52 -9 -61 52 -162 60 -171 136 -171 80 0 105 21 114 97 20 159 21 144
-18 195 -52 68 -57 89 -55 218 3 111 2 117 -24 155 -33 48 -33 55 -6 125 29
73 29 152 1 207 -29 55 -28 78 4 106 15 12 35 41 45 64 11 27 34 53 61 72 81
56 78 50 78 164 0 116 5 125 83 160 30 13 37 22 37 44 0 49 14 58 82 58 l63 0
-3 49 c-1 27 -16 90 -33 140 -30 87 -31 95 -25 197 6 93 5 107 -9 113 -31 12
-83 6 -96 -11z"/>
<path d="M2919 11876 c-3 -3 -50 -10 -105 -16 -54 -5 -116 -12 -137 -16 -77
-12 -88 -61 -28 -127 21 -23 42 -58 46 -77 10 -49 41 -106 60 -114 9 -3 49 -6
88 -6 l72 0 60 64 c33 35 88 80 121 100 62 36 90 74 82 112 -4 24 -119 71
-193 79 -33 4 -63 4 -66 1z"/>
<path d="M2223 11811 c-101 -26 -134 -119 -62 -173 17 -13 67 -26 145 -39 65
-10 132 -21 147 -24 22 -4 34 2 54 23 68 73 81 158 30 196 -25 18 -44 21 -155
23 -70 1 -142 -2 -159 -6z"/>
<path d="M3808 11311 c-82 -12 -148 -80 -148 -153 0 -42 23 -108 38 -108 6 0
34 11 64 25 56 26 112 31 203 15 59 -9 91 2 149 52 34 30 38 38 32 63 -10 40
-65 91 -111 104 -43 12 -150 13 -227 2z"/>
<path d="M6109 11175 c-49 -18 -115 -62 -133 -89 -8 -13 -19 -49 -25 -80 -14
-74 -43 -139 -87 -192 -61 -75 -63 -93 -17 -182 61 -116 62 -130 17 -167 -49
-41 -50 -77 -5 -134 51 -64 60 -108 56 -282 -2 -112 -7 -166 -19 -198 -26 -70
-21 -127 12 -159 15 -15 41 -34 58 -43 36 -19 68 -77 52 -96 -6 -8 -34 -13
-72 -13 -35 0 -67 -5 -74 -12 -16 -16 -15 -152 1 -197 19 -53 57 -76 130 -76
l61 0 12 100 c18 144 34 175 94 175 32 0 34 22 10 129 -26 113 -23 140 21 184
30 29 31 30 104 23 l74 -7 27 52 c48 96 34 141 -67 212 -97 68 -214 188 -227
232 -14 50 -4 434 12 466 6 11 36 31 66 42 49 20 58 28 83 76 42 85 38 109
-34 186 -34 36 -69 65 -78 64 -9 0 -32 -6 -52 -14z"/>
<path d="M4207 11050 c-41 -13 -55 -27 -89 -94 -40 -78 -48 -166 -23 -232 22
-57 77 -114 111 -114 22 0 30 11 63 83 24 52 48 89 65 101 15 9 65 23 111 30
132 19 150 52 94 171 -19 39 -30 51 -54 56 -44 10 -246 9 -278 -1z"/>
<path d="M3180 11004 c-14 -9 -36 -31 -48 -50 l-22 -34 -84 0 c-79 0 -86 -2
-105 -26 -12 -15 -21 -38 -21 -51 0 -58 35 -79 152 -90 63 -5 70 -9 84 -34 26
-51 81 -63 151 -34 51 22 68 38 109 113 30 54 35 71 31 105 -6 46 -33 86 -68
104 -35 18 -148 16 -179 -3z"/>
<path d="M4955 10592 c-43 -41 -73 -88 -105 -162 -5 -12 -101 -67 -143 -83 -5
-1 -11 -24 -14 -50 l-6 -47 -47 0 c-77 0 -84 -15 -76 -162 6 -105 4 -126 -10
-146 -9 -14 -14 -32 -10 -47 5 -20 1 -25 -28 -35 -19 -6 -46 -20 -60 -31 -23
-18 -26 -28 -26 -78 0 -108 27 -142 86 -108 23 13 134 109 202 174 l44 42 -7
75 -7 76 56 60 c34 37 59 75 66 99 5 21 17 45 26 52 31 25 73 97 83 139 5 23
19 49 30 57 12 8 37 39 57 70 31 49 34 57 20 65 -9 5 -16 21 -16 36 0 67 -48
68 -115 4z"/>
<path d="M3842 10420 c-47 -11 -68 -34 -110 -119 -33 -66 -37 -85 -40 -163 -3
-65 -1 -88 8 -88 7 0 44 11 82 25 72 26 127 32 144 15 13 -13 110 45 136 80
10 14 24 56 30 93 14 85 0 143 -38 157 -30 12 -164 11 -212 0z"/>
<path d="M3865 10039 c-62 -30 -122 -37 -155 -19 -15 8 -34 3 -89 -25 -38 -19
-73 -40 -77 -46 -15 -25 -33 -172 -23 -191 17 -31 89 -24 168 17 55 29 78 35
128 35 44 0 64 5 76 18 31 35 63 222 40 235 -5 2 -35 -9 -68 -24z"/>
<path d="M4405 9463 c-44 -6 -55 -27 -55 -110 0 -54 5 -84 20 -113 33 -65 93
-66 131 -3 12 21 44 61 71 90 26 28 48 59 48 68 0 61 -80 86 -215 68z"/>
<path d="M6142 9070 c-39 -37 -54 -129 -26 -168 13 -18 25 -22 74 -22 48 0 64
4 89 26 63 53 48 128 -32 165 -54 24 -78 24 -105 -1z"/>
<path d="M8574 9980 c-665 -424 -1209 -776 -1208 -783 1 -8 272 -438 604 -958
399 -626 599 -948 593 -956 -4 -7 -213 -148 -463 -313 -250 -166 -456 -305
-458 -309 -1 -5 107 -189 241 -409 l244 -402 482 310 c265 171 485 310 489
310 4 0 231 -350 505 -777 406 -632 496 -778 485 -788 -7 -7 -571 -365 -1253
-795 -682 -431 -1244 -786 -1248 -790 -7 -6 487 -835 519 -869 10 -11 285 160
1681 1049 917 585 1689 1078 1715 1095 l47 31 -771 1204 c-423 662 -772 1209
-775 1215 -2 7 198 133 459 290 255 153 466 281 470 284 7 6 -523 826 -533
826 -3 0 -204 -130 -448 -289 -244 -159 -450 -289 -459 -290 -17 -1 -696 1045
-684 1055 4 4 347 221 762 484 415 262 761 483 769 491 13 11 -25 73 -265 433
-153 231 -282 421 -285 421 -3 0 -550 -347 -1215 -770z m1396 285 c115 -173
210 -318 210 -323 0 -4 -348 -228 -774 -498 l-774 -491 405 -629 c222 -346
407 -630 412 -632 4 -1 211 131 461 293 249 163 456 292 460 288 4 -4 88 -132
187 -283 98 -151 187 -287 196 -301 l18 -26 -471 -284 c-259 -156 -469 -288
-466 -294 2 -5 351 -552 775 -1215 604 -943 768 -1207 758 -1216 -22 -20
-3191 -2037 -3207 -2041 -10 -2 -75 96 -209 318 -106 177 -194 328 -195 337
-1 10 423 284 1252 807 689 436 1255 795 1258 797 4 5 -1105 1741 -1125 1761
-5 5 -226 -132 -491 -302 -266 -171 -484 -310 -486 -309 -4 6 -364 599 -364
602 0 1 211 142 469 312 259 170 470 312 470 315 1 3 -273 435 -608 960 l-609
954 27 17 c216 143 2189 1397 2198 1397 7 1 107 -141 223 -314z"/>
<path d="M372 5394 l3 -1095 2968 -1820 c1632 -1000 2970 -1819 2972 -1819 3
0 5 1309 5 2908 l0 2909 -202 6 c-112 4 -1451 7 -2976 7 l-2772 0 2 -1096z
m1893 734 c145 -36 252 -148 301 -313 44 -146 -2 -521 -82 -677 -13 -24 -10
-33 31 -113 90 -178 141 -382 152 -610 5 -111 2 -158 -11 -225 -45 -227 -178
-374 -370 -409 -224 -41 -444 48 -565 229 -91 137 -132 371 -100 570 24 153
114 355 204 456 l41 48 -32 29 c-45 39 -83 123 -106 236 -27 130 -22 396 9
481 34 93 63 141 117 195 106 106 253 143 411 103z m3115 -88 c234 -57 399
-206 444 -401 30 -128 41 -557 40 -1544 -1 -975 -11 -1352 -39 -1492 -31 -152
-95 -251 -242 -373 -200 -166 -387 -236 -566 -210 -279 40 -450 130 -518 275
-34 70 -37 127 -10 171 27 45 84 85 128 91 43 5 70 -7 220 -100 126 -78 184
-100 263 -101 96 -1 145 26 256 138 75 76 99 108 132 177 43 91 67 173 82 290
10 81 11 643 1 751 l-6 67 -45 -31 c-67 -46 -176 -94 -271 -120 -73 -20 -107
-23 -264 -23 -142 1 -194 4 -244 19 -160 44 -239 120 -284 275 -16 56 -20 116
-27 391 -27 1036 -25 1240 16 1397 58 227 217 341 518 373 123 13 317 4 416
-20z m-1495 -1 c111 -31 167 -134 141 -257 -11 -50 -335 -1096 -638 -2057
-127 -403 -155 -461 -236 -486 -52 -15 -145 19 -173 65 -44 72 -59 19 446
1571 140 429 257 797 261 818 4 26 2 44 -9 60 -15 23 -22 24 -174 31 -317 13
-477 27 -501 43 -30 19 -52 71 -52 123 0 41 21 95 40 102 27 9 859 -3 895 -13z
m-2714 -38 l24 -19 3 -758 c3 -874 13 -794 -100 -794 -58 0 -72 4 -91 23 -23
22 -23 22 -25 412 -1 215 -5 539 -8 721 -4 182 -4 347 0 367 9 47 43 66 117
67 41 0 63 -5 80 -19z"/>
<path d="M2095 5911 c-55 -14 -104 -43 -141 -83 -68 -76 -91 -171 -74 -309 24
-205 101 -297 254 -307 39 -2 90 1 114 7 57 16 114 69 143 134 22 48 24 65 24
207 -1 137 -4 162 -23 212 -47 119 -161 172 -297 139z"/>
<path d="M2090 4931 c-110 -36 -190 -138 -227 -288 -19 -82 -22 -295 -4 -367
29 -119 104 -221 189 -258 67 -30 165 -29 229 3 115 57 163 195 163 464 0 239
-50 368 -163 426 -42 22 -148 33 -187 20z"/>
<path d="M4934 5770 c-146 -29 -237 -128 -265 -285 -14 -80 -5 -1215 10 -1367
11 -104 37 -157 98 -204 53 -40 116 -54 246 -54 256 0 472 109 518 262 12 39
12 944 0 1220 -7 173 -10 190 -35 241 -48 98 -139 157 -284 183 -84 15 -223
17 -288 4z"/>
</g>
</svg>
